# xmcd
#
# Track frame offsets:
#       150
#       16810
#       35915
#       51682
#       63717
#       81820
#       95517
#       107870
#       123745
#       141880
#       154512
#       169100
#       189109
#       207780
#       222445
#       238767
#
# Disc length: 3428 seconds
#
# Revision: 0
# Processed by: cddbd v1.4PL0 Copyright (c) Steve Scherf et al.
# Submitted via: WhereIsIt 3.21
#
DISCID=eb0d6210
DTITLE=Ken Boynton Band - Midnight Every Day
DYEAR=1900
DGENRE=
TTITLE0=Alright To Wonder
TTITLE1=Black Heart
TTITLE2=At The Light
TTITLE3=Just As Well
TTITLE4=Take The Hand
TTITLE5=She
TTITLE6=Kicking And Screaming
TTITLE7=I Will
TTITLE8=Blah Blah Blah
TTITLE9=All There Was (To Be Told)
TTITLE10=Itsa
TTITLE11=Trees Burn
TTITLE12=Anybody's Guess
TTITLE13=God Forbid
TTITLE14=I've Got You (To Thank)
TTITLE15=(bonus track)
EXTD=
EXTT0=
EXTT1=
EXTT2=
EXTT3=
EXTT4=
EXTT5=
EXTT6=
EXTT7=
EXTT8=
EXTT9=
EXTT10=
EXTT11=
EXTT12=
EXTT13=
EXTT14=
EXTT15=
PLAYORDER=
